<svg width="1440" height="1868" viewBox="0 0 1440 1868" fill="none" xmlns="http://www.w3.org/2000/svg">
<path fill-rule="evenodd" clip-rule="evenodd" d="M220.439 16.1581C129.3 30.6221 52.755 49.2107 0 71.5327V1867.53H1440V71.5327C1417.61 61.487 1391.72 52.3163 1362.87 43.9972C1287.94 25.1959 1173.35 0.500061 1088.46 0.500061C1025.29 0.500061 946.768 18.2468 872.153 35.1102L872.151 35.1108C806.499 49.9487 743.873 64.1025 697.395 64.8817C598.092 66.5467 491.722 50.5486 340.111 22.0264C301.375 14.7391 260.232 13.6864 220.439 16.1581Z" fill="#FFF9E8"/>
<path fill-rule="evenodd" clip-rule="evenodd" d="M220.439 16.1581C129.3 30.6221 52.755 49.2107 0 71.5327V1867.53H1440V71.5327C1417.61 61.487 1391.72 52.3163 1362.87 43.9972C1287.94 25.1959 1173.35 0.500061 1088.46 0.500061C1025.29 0.500061 946.768 18.2468 872.153 35.1102L872.151 35.1108C806.499 49.9487 743.873 64.1025 697.395 64.8817C598.092 66.5467 491.722 50.5486 340.111 22.0264C301.375 14.7391 260.232 13.6864 220.439 16.1581Z" fill="url(#paint0_linear_702_9)"/>
<defs>
<linearGradient id="paint0_linear_702_9" x1="720" y1="-20" x2="720" y2="1867.53" gradientUnits="userSpaceOnUse">
<stop offset="0.838542" stop-color="white" stop-opacity="0"/>
<stop offset="1" stop-color="white"/>
</linearGradient>
</defs>
</svg>
